<?xml version="1.0" encoding="iso-8859-1"?>
<!-- Generator: Adobe Illustrator 19.0.0, SVG Export Plug-In . SVG Version: 6.00 Build 0)  -->
<svg version="1.1" id="Capa_1" xmlns="http://www.w3.org/2000/svg" xmlns:xlink="http://www.w3.org/1999/xlink" x="0px" y="0px"
	 viewBox="0 0 512 512" style="enable-background:new 0 0 512 512;" xml:space="preserve" width="30px" height="26px">
<g>
	<g>
		<path d="M331.034,27.586H180.966c-15.211,0-27.586,12.375-27.586,27.586v401.655c0,15.211,12.375,27.586,27.586,27.586h150.069
			c15.211,0,27.586-12.375,27.586-27.586V55.172C358.621,39.961,346.245,27.586,331.034,27.586z M325.517,451.31H186.483V60.69
			h139.034V451.31z"/>
	</g>
</g>
<g>
	<g>
		<path d="M289.103,101.517h-66.207c-9.142,0-16.552,7.41-16.552,16.552s7.41,16.552,16.552,16.552h66.207
			c9.148,0,16.552-7.41,16.552-16.552S298.246,101.517,289.103,101.517z"/>
	</g>
</g>
<g>
	<g>
		<path d="M289.103,178.759h-66.207c-9.142,0-16.552,7.41-16.552,16.552s7.41,16.552,16.552,16.552h66.207
			c9.148,0,16.552-7.41,16.552-16.552S298.246,178.759,289.103,178.759z"/>
	</g>
</g>
<g>
	<g>
		<path d="M289.103,256h-66.207c-9.142,0-16.552,7.41-16.552,16.552c0,9.142,7.41,16.552,16.552,16.552h66.207
			c9.148,0,16.552-7.41,16.552-16.552C305.655,263.41,298.246,256,289.103,256z"/>
	</g>
</g>
<g>
	<g>
		<path d="M267.034,377.379h-22.069c-9.142,0-16.552,7.41-16.552,16.552s7.41,16.552,16.552,16.552h22.069
			c9.148,0,16.552-7.41,16.552-16.552S276.177,377.379,267.034,377.379z"/>
	</g>
</g>
<g>
	<g>
		<path d="M169.931,451.31H33.103V108.69h136.828c9.142,0,16.552-7.41,16.552-16.552s-7.41-16.552-16.552-16.552H27.586
			C12.375,75.586,0,87.961,0,103.172v353.655c0,15.211,12.375,27.586,27.586,27.586h142.345c9.142,0,16.552-7.41,16.552-16.552
			C186.483,458.72,179.073,451.31,169.931,451.31z"/>
	</g>
</g>
<g>
	<g>
		<path d="M118.621,141.241H65.655c-9.142,0-16.552,7.41-16.552,16.552c0,9.142,7.41,16.552,16.552,16.552h52.966
			c9.142,0,16.552-7.41,16.552-16.552C135.172,148.651,127.763,141.241,118.621,141.241z"/>
	</g>
</g>
<g>
	<g>
		<path d="M118.621,209.655H65.655c-9.142,0-16.552,7.41-16.552,16.552s7.41,16.552,16.552,16.552h52.966
			c9.142,0,16.552-7.41,16.552-16.552S127.763,209.655,118.621,209.655z"/>
	</g>
</g>
<g>
	<g>
		<path d="M118.621,278.069H65.655c-9.142,0-16.552,7.41-16.552,16.552c0,9.142,7.41,16.552,16.552,16.552h52.966
			c9.142,0,16.552-7.41,16.552-16.552C135.172,285.479,127.763,278.069,118.621,278.069z"/>
	</g>
</g>
<g>
	<g>
		<path d="M105.379,385.655H84.414c-9.142,0-16.552,7.41-16.552,16.552c0,9.142,7.41,16.552,16.552,16.552h20.966
			c9.142,0,16.552-7.41,16.552-16.552C121.931,393.065,114.521,385.655,105.379,385.655z"/>
	</g>
</g>
<g>
	<g>
		<path d="M484.414,75.586H342.069c-9.142,0-16.552,7.41-16.552,16.552s7.41,16.552,16.552,16.552h136.828V451.31H342.069
			c-9.142,0-16.552,7.41-16.552,16.552c0,9.142,7.41,16.552,16.552,16.552h142.345c15.211,0,27.586-12.375,27.586-27.586V103.172
			C512,87.961,499.625,75.586,484.414,75.586z"/>
	</g>
</g>
<g>
	<g>
		<path d="M446.345,141.241h-52.966c-9.142,0-16.552,7.41-16.552,16.552c0,9.142,7.41,16.552,16.552,16.552h52.966
			c9.148,0,16.552-7.41,16.552-16.552C462.897,148.651,455.487,141.241,446.345,141.241z"/>
	</g>
</g>
<g>
	<g>
		<path d="M446.345,209.655h-52.966c-9.142,0-16.552,7.41-16.552,16.552s7.41,16.552,16.552,16.552h52.966
			c9.148,0,16.552-7.41,16.552-16.552S455.487,209.655,446.345,209.655z"/>
	</g>
</g>
<g>
	<g>
		<path d="M446.345,278.069h-52.966c-9.142,0-16.552,7.41-16.552,16.552c0,9.142,7.41,16.552,16.552,16.552h52.966
			c9.148,0,16.552-7.41,16.552-16.552C462.897,285.479,455.487,278.069,446.345,278.069z"/>
	</g>
</g>
<g>
	<g>
		<path d="M427.586,385.655h-20.966c-9.142,0-16.552,7.41-16.552,16.552c0,9.142,7.41,16.552,16.552,16.552h20.966
			c9.142,0,16.552-7.41,16.552-16.552C444.138,393.065,436.728,385.655,427.586,385.655z"/>
	</g>
</g>
<g>
</g>
<g>
</g>
<g>
</g>
<g>
</g>
<g>
</g>
<g>
</g>
<g>
</g>
<g>
</g>
<g>
</g>
<g>
</g>
<g>
</g>
<g>
</g>
<g>
</g>
<g>
</g>
<g>
</g>
</svg>
