<?xml version="1.0" encoding="iso-8859-1"?>
<!-- Generator: Adobe Illustrator 18.1.1, SVG Export Plug-In . SVG Version: 6.00 Build 0)  -->
<svg version="1.1" fill="#ffffff" height="24" width="24" id="Capa_1" xmlns="http://www.w3.org/2000/svg" xmlns:xlink="http://www.w3.org/1999/xlink" x="0px" y="0px"
	 viewBox="0 0 18.027 18.027" style="enable-background:new 0 0 18.027 18.027;" xml:space="preserve">
<g>
	<g>
		<polygon points="13.03,16.634 13.759,17.521 8.37,17.521 8.37,16.634 		"/>
		<path d="M16.668,13.694V4.954H8.869V3.599h8.479c0.374,0,0.679,0.304,0.679,0.679v10.097
			c0,0.374-0.305,0.679-0.679,0.679h-4.815v1.293H8.871v-2.65h7.797V13.694z"/>
		<path d="M6.813,0.348H1.01C0.453,0.348,0,0.801,0,1.358V16.67c0,0.558,0.453,1.01,1.01,1.01h5.803
			c0.557,0,1.01-0.452,1.01-1.01V1.358C7.823,0.801,7.369,0.348,6.813,0.348z M6.813,16.67H1.01V1.358h5.803V16.67z"/>
		<rect x="1.597" y="2.982" width="4.627" height="1.606"/>
		<rect x="1.598" y="6.211" width="4.627" height="1.606"/>
		<rect x="1.598" y="9.64" width="4.626" height="1.606"/>
	</g>
</g>
<g>
</g>
<g>
</g>
<g>
</g>
<g>
</g>
<g>
</g>
<g>
</g>
<g>
</g>
<g>
</g>
<g>
</g>
<g>
</g>
<g>
</g>
<g>
</g>
<g>
</g>
<g>
</g>
<g>
</g>
</svg>
